<?xml version="1.0" encoding="utf-8"?>
<!-- Generator: Adobe Illustrator 15.0.0, SVG Export Plug-In . SVG Version: 6.00 Build 0)  -->
<!DOCTYPE svg PUBLIC "-//W3C//DTD SVG 1.1//EN" "http://www.w3.org/Graphics/SVG/1.1/DTD/svg11.dtd">
<svg version="1.1" id="Layer_1" xmlns="http://www.w3.org/2000/svg" xmlns:xlink="http://www.w3.org/1999/xlink" x="0px" y="0px"
	 width="253.468px" height="39.694px" viewBox="0 0 253.468 39.694" enable-background="new 0 0 253.468 39.694"
	 xml:space="preserve">
<g>
	<path fill="#333333" d="M123.916,38.897l-10.57-12.91l0.14-0.001c5.592-0.421,11.021-4.091,11.021-12.772
		c0-5.893-3.77-12.648-13.066-12.769c-0.042-0.003-0.079-0.005-0.102-0.005H94.729c-0.064-0.001-0.126-0.006-0.192-0.006
		c-0.065,0-0.129,0.005-0.193,0.006h-0.049c-0.004,0-0.006,0.001-0.009,0.002c-0.443,0.009-0.88,0.034-1.311,0.087l0,0
		C92.707,0.56,92.5,0.787,92.5,1.062v38.004c0,0.271,0.198,0.491,0.456,0.53l0,0c0.519,0.065,1.25,0.099,1.784,0.099
		c0.543,0,1.364-0.035,1.889-0.101v0c0.247-0.046,0.434-0.263,0.437-0.523V25.985h10.467l10.804,13.085
		c0.238,0.211,0.514,0.514,0.89,0.556c0.375,0.042,1.63,0.069,2.485,0.069c0.536,0,1.31-0.034,1.828-0.099h-0.003
		C123.931,39.543,124.209,39.224,123.916,38.897z M97.065,4.836h14.354c6.355,0,8.531,4.257,8.531,8.377
		c0,4.757-2.126,8.437-8.566,8.437h-14.32V4.836z"/>
	<path fill="#333333" d="M166.239,35.75L166.239,35.75c-0.029-0.256-0.247-0.455-0.51-0.455h-21.466
		c-0.068,0-0.16,0.014-0.257,0.039V1.058c-0.001-0.27-0.202-0.492-0.463-0.527v0c-0.516-0.063-1.286-0.096-1.82-0.096
		c-0.529,0-1.294,0.033-1.807,0.096l0,0c-0.267,0.031-0.475,0.257-0.475,0.532v38.004c0,0.271,0.199,0.491,0.456,0.53l0,0
		c0.434,0.055,0.874,0.081,1.32,0.091c0.003,0,0.003,0.005,0.007,0.005h0.411c0.03,0,0.06,0.003,0.088,0.003
		c0.03,0,0.059-0.003,0.086-0.003h23.922c0.259-0.002,0.471-0.195,0.505-0.443h0.001c0.06-0.496,0.092-1.243,0.092-1.755
		C166.33,36.985,166.298,36.242,166.239,35.75z"/>
	<path fill="#333333" d="M253.001,0.164L253.001,0.164c-0.518-0.064-1.29-0.098-1.826-0.098c-0.483,0-1.424,0.048-1.802,0.076
		c-0.66,0.065-0.962,0.518-1.124,0.704l-13.789,20.1l-0.012,0.045l-0.011-0.045l-13.79-20.1c-0.162-0.186-0.41-0.611-1.124-0.704
		c-0.377-0.049-1.318-0.076-1.802-0.076c-0.536,0-1.062,0.033-1.581,0.098l0,0c-0.258,0.04-0.866,0.276-0.623,0.7l16.638,24.154
		v14.048c0,0.271,0.198,0.491,0.455,0.53h0.245c0.52,0.065,1.048,0.099,1.583,0.099c0.543,0,1.321-0.035,1.847-0.101v0
		c0.247-0.046,0.433-0.263,0.436-0.522V25.053l16.66-24.189C253.624,0.44,253.321,0.217,253.001,0.164z"/>
	<path fill="#333333" d="M206.569,35.75c-0.03-0.256-0.246-0.455-0.51-0.455h-23.756V22.201h22.289c0.254,0,0.463-0.188,0.499-0.43
		h0.001c0.061-0.489,0.093-1.233,0.093-1.738c0-0.513-0.033-1.261-0.094-1.756h-0.001c-0.045-0.233-0.25-0.41-0.495-0.412h-22.292
		V4.836h23.756c0.264,0,0.48-0.2,0.51-0.456l0,0c0.061-0.491,0.092-1.235,0.092-1.742c0-0.512-0.031-1.26-0.092-1.755h-0.001
		c-0.034-0.25-0.247-0.442-0.506-0.443h-24.57c-0.069,0-0.133,0.015-0.192,0.04c-0.341-0.028-1.175-0.047-1.525-0.047
		c-0.528,0-1.048,0.033-1.562,0.096l0,0c-0.267,0.031-0.476,0.257-0.476,0.532v38.004c0,0.271,0.198,0.491,0.457,0.53l0,0
		c0.517,0.065,1.045,0.099,1.58,0.099c0.029,0,0.059-0.003,0.088-0.003h26.199c0.259-0.002,0.473-0.195,0.506-0.443h0.001
		c0.061-0.496,0.092-1.243,0.092-1.755C206.661,36.985,206.63,36.242,206.569,35.75L206.569,35.75z"/>
	<path fill="#333333" d="M25.772,19.668c3.185-1.508,5.621-4.299,5.621-9.378c0-5.681-4.609-9.85-11.666-9.85
		c-0.006,0-0.008,0.005-0.012,0.005c-0.012,0-0.023-0.005-0.035-0.005H2.391C2.327,0.439,2.264,0.434,2.2,0.434
		c-0.065,0-0.129,0.005-0.193,0.007H1.958c-0.004,0-0.006,0.001-0.01,0.001c-0.441,0.009-0.878,0.034-1.31,0.087l0,0
		C0.37,0.56,0.162,0.787,0.162,1.062v38.004c0,0.271,0.198,0.491,0.456,0.53l0,0c0.431,0.055,0.867,0.081,1.308,0.091
		c0.012,0,0.02,0.005,0.031,0.005h0.154c0.029,0,0.057,0.003,0.088,0.003c0.029,0,0.057-0.003,0.087-0.003h18.613v0.003
		c6.832,0,11.802-4.602,11.802-10.277C32.702,24.523,29.941,21.028,25.772,19.668z M26.829,10.841c0,4.1-3.82,7.024-6.455,7.024
		c-0.006,0-0.073,0-0.079,0h0.061H4.728V4.836h15.646C24.028,4.836,26.829,7.23,26.829,10.841z M20.374,35.295H4.728V22.201h15.414
		c4.085,0.03,7.73,3.058,7.73,6.856C27.872,32.732,24.86,35.295,20.374,35.295z"/>
	<path fill="#333333" d="M80.098,38.897L62.718,0.67c-0.063-0.172-0.274-0.451-0.64-0.551c-0.647-0.158-1.695-0.158-2.361,0
		c-0.375,0.089-0.576,0.379-0.64,0.551l-17.38,38.227c-0.189,0.403,0.12,0.66,0.378,0.699l0,0c0.519,0.065,1.718,0.099,2.254,0.099
		c0.543,0,1.324-0.069,1.324-0.069c0.405-0.051,0.626-0.37,0.715-0.555l4.772-10.522h19.515l4.772,10.522
		c0.089,0.185,0.31,0.504,0.714,0.555c0,0,0.781,0.069,1.324,0.069c0.535,0,1.736-0.034,2.253-0.099h-0.01
		C79.968,39.557,80.288,39.3,80.098,38.897z M53.01,24.457l7.888-17.351l7.888,17.351H53.01z"/>
</g>
</svg>
