<?xml version="1.0" encoding="utf-8"?>
<!-- Generator: Adobe Illustrator 15.0.0, SVG Export Plug-In . SVG Version: 6.00 Build 0)  -->
<!DOCTYPE svg PUBLIC "-//W3C//DTD SVG 1.1//EN" "http://www.w3.org/Graphics/SVG/1.1/DTD/svg11.dtd">
<svg version="1.1" id="Layer_1" xmlns="http://www.w3.org/2000/svg" xmlns:xlink="http://www.w3.org/1999/xlink" x="0px" y="0px"
	 width="64.712px" height="100px" viewBox="0 0 64.712 100" enable-background="new 0 0 64.712 100" xml:space="preserve">
<g>
	<path fill="#333333" d="M64.712,1.244c0-0.039,0-0.076,0-0.116C64.712,0.506,64.213,0,63.589,0c-0.324,0-0.617,0.138-0.822,0.357
		L36.817,26.305c-1.596,1.597-2.545,3.302-2.545,5.506v0.001l0,0l-0.002,27.914h0.003c0.015,0.611,0.514,1.104,1.128,1.104
		c0.316,0,0.604-0.133,0.81-0.345L62.525,34.17c1.348-1.314,2.186-3.148,2.186-5.178C64.711,28.903,64.712,1.244,64.712,1.244z"/>
	<path fill="#333333" d="M0,1.244c0-0.038,0-0.076,0-0.115C0,0.506,0.499,0,1.123,0c0.325,0,0.617,0.138,0.822,0.357l25.949,25.948
		c1.536,1.538,2.545,3.302,2.545,5.506v0.001l0,0l0.001,27.914h-0.002c-0.014,0.611-0.513,1.104-1.127,1.104
		c-0.318,0-0.605-0.133-0.81-0.345L2.185,34.17c-1.347-1.314-2.184-3.148-2.184-5.178C0.001,28.903,0,1.244,0,1.244z"/>
	<path fill="#333333" d="M64.709,40.176c0-0.623-0.496-1.128-1.12-1.128c-0.324,0-0.617,0.138-0.822,0.358L36.817,65.354
		c-1.468,1.469-2.545,3.302-2.545,5.507l0,0l0,0l-0.002,27.912l0.003,0.002c0.015,0.612,0.514,1.102,1.128,1.102
		c0.316,0,0.604-0.132,0.81-0.344l26.314-26.314c1.348-1.313,2.186-3.148,2.186-5.178C64.711,67.95,64.709,40.215,64.709,40.176z"/>
	<path fill="#333333" d="M0,40.292c0-0.039,0-0.076,0-0.115c0-0.623,0.499-1.128,1.123-1.128c0.325,0,0.617,0.138,0.822,0.358
		l25.949,25.948c1.503,1.505,2.545,3.302,2.545,5.507l0,0l0,0l0.001,27.912l-0.002,0.002c-0.014,0.612-0.513,1.102-1.127,1.102
		c-0.318,0-0.605-0.132-0.81-0.344L2.185,73.218c-1.347-1.313-2.184-3.148-2.184-5.178C0.001,67.95,0,40.292,0,40.292z"/>
	<g>
		<path fill="#333333" d="M30.5,23.129c0.705,0.706,1.334,1.333,1.855,2.103c0.521-0.77,1.151-1.397,1.856-2.103l8.078-8.077
			c-2.326-2.921-5.911-4.794-9.935-4.794s-7.61,1.873-9.935,4.793L30.5,23.129z"/>
	</g>
</g>
</svg>
